<svg xmlns="http://www.w3.org/2000/svg" viewBox="0 0 170.68 138.5"><defs><style>.cls-1{fill:#f7f7f7;}.cls-2{fill:#fddb00;}</style></defs><g id="Layer_2" data-name="Layer 2"><g id="icons"><circle class="cls-1" cx="82.01" cy="61.78" r="55.99"/><path class="cls-2" d="M161.63,107a1,1,0,0,1-1-1v-5.37a1,1,0,1,1,2,0V106A1,1,0,0,1,161.63,107Z"/><path class="cls-2" d="M161.63,96.29a1,1,0,0,1-1-1V89.93a1,1,0,0,1,2,0v5.36A1,1,0,0,1,161.63,96.29Z"/><path class="cls-2" d="M159,99h-5.36a1,1,0,0,1,0-2H159a1,1,0,0,1,0,2Z"/><path class="cls-2" d="M169.68,99h-5.36a1,1,0,0,1,0-2h5.36a1,1,0,0,1,0,2Z"/><path class="cls-2" d="M32.31,6.29A1,1,0,0,1,31.6,6L27.32,1.71a1,1,0,0,1,0-1.42,1,1,0,0,1,1.41,0L33,4.58a1,1,0,0,1-.71,1.71Z"/><path class="cls-2" d="M43,17a1,1,0,0,1-.7-.29L38,12.42A1,1,0,0,1,38,11a1,1,0,0,1,1.42,0l4.28,4.28A1,1,0,0,1,43,17Z"/><path class="cls-2" d="M38.74,6.29A1,1,0,0,1,38,4.58L42.32.29a1,1,0,0,1,1.41,0,1,1,0,0,1,0,1.42L39.45,6A1,1,0,0,1,38.74,6.29Z"/><path class="cls-2" d="M28,17a1,1,0,0,1-.7-1.71L31.6,11A1,1,0,0,1,33,11a1,1,0,0,1,0,1.41l-4.29,4.29A1,1,0,0,1,28,17Z"/><path d="M59,129.93a1,1,0,0,1-.7-.29l-3.43-3.43a1,1,0,0,1,0-1.42,1,1,0,0,1,1.41,0l3.43,3.43a1,1,0,0,1,0,1.42A1,1,0,0,1,59,129.93Z"/><path d="M67.52,138.5a1,1,0,0,1-.7-.29l-3.43-3.43a1,1,0,0,1,0-1.42,1,1,0,0,1,1.41,0l3.43,3.43a1,1,0,0,1-.71,1.71Z"/><path d="M64.1,129.93a1,1,0,0,1-.71-1.71l3.43-3.43a1,1,0,0,1,1.41,0,1,1,0,0,1,0,1.42l-3.43,3.43A1,1,0,0,1,64.1,129.93Z"/><path d="M55.52,138.5a1,1,0,0,1-.7-1.71l3.43-3.43a1,1,0,0,1,1.41,0,1,1,0,0,1,0,1.42l-3.43,3.43A1,1,0,0,1,55.52,138.5Z"/><path d="M9,71.24a1,1,0,0,1-1-1V64.9a1,1,0,0,1,2,0v5.34A1,1,0,0,1,9,71.24Z"/><path d="M9,81.9a1,1,0,0,1-1-1V75.57a1,1,0,0,1,2,0V80.9A1,1,0,0,1,9,81.9Z"/><path d="M17,73.9H11.67a1,1,0,0,1,0-2H17a1,1,0,0,1,0,2Z"/><path d="M6.33,73.9H1a1,1,0,0,1,0-2H6.33a1,1,0,0,1,0,2Z"/><path d="M150,31.9a1,1,0,0,1-1-1v-14a1,1,0,0,1,2,0v14A1,1,0,0,1,150,31.9Z"/><path d="M157,24.9H143a1,1,0,0,1,0-2h14a1,1,0,0,1,0,2Z"/><path d="M82,94.1A32.33,32.33,0,1,1,93.55,31.57a1,1,0,1,1-.71,1.87,30.33,30.33,0,1,0,19.5,28.34,1,1,0,0,1,2,0A32.37,32.37,0,0,1,82,94.1Z"/><polygon class="cls-2" points="112.24 30.53 84 58.77 72.23 47.01 62.82 56.42 84 77.6 121.66 39.95 112.24 30.53"/><path d="M84,78.6a1,1,0,0,1-.71-.29L62.11,57.13a1,1,0,0,1,0-1.42l9.41-9.41a1,1,0,0,1,1.42,0L84,57.36l27.54-27.54a1,1,0,0,1,1.41,0l9.41,9.42a1,1,0,0,1,0,1.41L84.71,78.31A1,1,0,0,1,84,78.6ZM64.23,56.42,84,76.19,120.24,40l-8-8L84.71,59.48a1,1,0,0,1-1.42,0L72.23,48.42Z"/></g></g></svg>